<?xml version="1.0" encoding="UTF-8"?>
<svg id="Livello_2" data-name="Livello 2" xmlns="http://www.w3.org/2000/svg" viewBox="0 0 410.51 191.44">
  <g id="Livello_1-2" data-name="Livello 1">
    <g>
      <path d="m396.48,92.14c-1.36-.16-3.16-3.06-2.33-4.09,1.55-1.93,3.29-3.76,5.2-5.33,1.26-1.03,5.81,1.27,6.13,2.9.08.39-.02.85-.16,1.23-.74,1.95-6.77,5.53-8.84,5.29Z"/>
      <path d="m405.32,129.88c-1.93-.84-4.15-1.21-6.28-1.39-3.95-.34-7.92-.58-11.87-.51-2.96.05-4.27-1.51-5.21-3.91-1.03-2.64-5.63-4.99-8.46-4.57-5.62.83-9.81,4.43-14.31,7.36-3.7,2.41-7.25,5.03-12.31,5.99-.81-3.2-1.69-6.38-2.43-9.6-1.03-4.44-6.64-7.4-10.64-5.14-3.17,1.79-6,4.24-8.86,6.54-2.28,1.83-4.39,3.87-7.14,6.31,1.97-5.08,3.45-9.59,5.44-13.86,2.58-5.55,5.55-10.93,8.38-16.36,3.97-7.59,7.91-15.2,11.97-22.74,2.21-4.12,3.7-8.44,4.27-13.06.11-.87-.18-1.98-.68-2.7-3.75-5.41-8.06-4.94-12.76-2.58-7.48,3.76-14.02,8.99-19.91,14.88-6.36,6.35-12.3,13.11-18.51,19.61-8.25,8.63-16.51,17.26-24.9,25.74-3.83,3.87-7.86,7.56-12.03,11.05-5.04,4.21-10.26,8.2-15.53,12.12-6.79,5.04-13.68,9.97-20.62,14.81-1.63,1.14-3.63,1.76-5.91,2.82.23-2.85.41-4.87.56-6.89.25-3.24.61-6.47.68-9.71.09-3.82-2.2-6-5.89-7.08.87-.83,1.45-1.54,2.17-2.05,3.31-2.35,6.7-4.6,10-6.97,6.73-4.83,13.36-9.8,20.15-14.55,8.96-6.28,18.07-12.35,27.03-18.64,6.92-4.86,13.67-9.94,20.54-14.86,3.3-2.36,6.65-4.66,10.08-6.83,6.96-4.41,13.98-8.74,20.99-13.06,6.87-4.23,13.82-8.35,20.65-12.66,2.84-1.79,5.53-3.85,8.1-6.01.68-.57,1.17-2.19.86-2.98-1.23-3.13-3.14-3.76-6.53-3.44-5.87.54-11,3.12-16.2,5.49-10.35,4.72-20.62,9.6-30.95,14.36-13.4,6.17-26.76,12.43-40.25,18.39-11.2,4.94-22.1,10.72-34.31,13.07-5.2,1-10.3,2.29-14.76-2.29-1.67-1.72-4.49-2.45-6.64-1.31-4,2.13-7.71,4.8-11.46,7.37-1.59,1.09-2.95,2.51-4.64,3.97.03-2.34.12-4.15.05-5.96-.15-4.22-2.74-6.82-6.85-7.7-5.68-1.22-9.64,2.19-13.35,5.19-7.48,6.06-14.46,12.74-21.68,19.12-1.3,1.15-2.76,2.15-4.27,3.03-1.19.69-1.97.53-2.41-1.21-1.34-5.37-2.98-10.67-4.43-16.02-.2-.72-.31-1.83.08-2.28,2.52-2.86,5.14-5.66,7.84-8.35,3.67-3.66,7.19-7.54,11.26-10.71,3.52-2.74,6.38-6.24,10.94-7.93,10.82-4,21.36-8.77,32.06-13.1,14.79-6,29.67-11.8,44.44-17.85,10.23-4.19,20.45-8.43,30.48-13.05,6.02-2.77,11.74-6.24,17.49-9.57,1.87-1.08,1.68-2.65-.14-3.82-1.34-.86-2.68-1.7-4.02-2.55-3.16-.41-6.31-.82-9.47-1.23-1.57.29-3.13.81-4.7.84-8.57.21-16.63,2.9-24.55,5.65-7.59,2.63-14.91,6.16-22.13,9.73-8.02,3.96-15.84,8.31-23.65,12.67-3.7,2.07-7.14,4.6-10.75,6.84-3.39,2.11-6.91,4.01-10.25,6.17-3.79,2.45-7.45,5.1-11.16,7.66-1.82,1.25-3.73,2.39-5.42,3.79-3.23,2.67-6.36,5.31-10.52,6.69-6.23,2.06-12.28,4.68-18.43,6.98-5.44,2.03-10.89,4.05-16.39,5.88-4.49,1.49-8.96,3.23-13.88,2.58-8.52-1.11-16.91.26-25.14,2.09-8.98,1.99-17.65,5.16-26.14,8.76-3.3,1.4-6.56,2.9-9.82,4.39-4.32,1.97-8.72,3.79-12.91,6.02-6.53,3.46-12.92,7.18-19.34,10.85-2.96,1.7-5.91,3.44-8.71,5.38-.74.52-1.56,2.31-1.27,2.69,1.05,1.36,1.61,3.72,4.4,2.71,5.31-1.93,10.72-3.6,16.07-5.43,8.46-2.9,16.91-5.81,25.34-8.78,9.74-3.42,19.47-6.9,29.2-10.37,6.94-2.48,13.81-5.17,20.83-7.41,4.86-1.55,9.43-4.81,15.13-2.41,3.8,1.6,7.59,3,10.45,6.11.99,1.08,1.02,1.78-.04,3.12-4.94,6.22-9.8,12.52-14.4,19-4.17,5.86-8.23,11.84-11.87,18.03-5.72,9.72-11.2,19.58-16.5,29.54-3.2,6.01-5.91,12.28-6.61,19.21-.19,1.85.43,2.98,2.18,3.62,2.65.97,9.03-1.33,11.71-4.4-.73-.64-1.5-1.23-2.17-1.92-.41-.43-.99-1.04-.94-1.52.19-1.9.35-3.85.97-5.63,2.65-7.63,6.1-14.91,10.16-21.9,4.83-8.32,9.53-16.72,14.61-24.88,3.32-5.33,7.18-10.32,10.88-15.41,2.02-2.79,4.21-5.45,6.47-8.35.27.61.45.89.52,1.2.87,3.81,1.55,7.67,2.62,11.42,1.49,5.22,5.2,5.67,9.3,4.43,3.92-1.19,7.85-3.17,11.04-5.73,6.05-4.85,11.55-10.38,17.3-15.6,2.24-2.03,4.46-4.11,6.89-5.89,1.77-1.29,3.35-.62,3.36,1.49.02,3.59-.24,7.21-.82,10.75-.28,1.69-.64,3.21.83,4.24.85.6,2.3.99,3.23.69,1.88-.6,3.71-1.55,5.34-2.68,3.86-2.67,7.58-5.56,11.4-8.3,1.06-.76,2.84-2.13,3.3-1.8,2.09,1.46,4.38,1.29,6.61,1.42,4.25.25,8.64.93,12.75.21,5.98-1.06,11.99-2.69,17.6-5,10.29-4.24,20.31-9.15,30.43-13.8,8.2-3.77,16.37-7.61,24.59-11.35,12.29-5.6,24.61-11.13,36.92-16.69,3.01-1.36,6-2.74,9-4.11-6.02,4.36-12.26,8.24-18.44,12.21-8.62,5.54-17.26,11.04-25.77,16.74-7.87,5.27-15.6,10.75-23.37,16.16-8.65,6.03-17.27,12.1-25.92,18.14-3.43,2.4-6.92,4.71-10.34,7.13-8.08,5.72-16.14,11.45-24.18,17.22-3.46,2.48-6.85,5.05-10.31,7.6-3.31-4.52-7.98-6.11-12.8-7.26-6.71-1.6-13.28-.33-19.67,1.7-9.93,3.17-18.86,8.34-27.16,14.58-8.92,6.72-17.46,13.88-23.74,23.27-2.26,3.38-4.44,6.91-6.01,10.65-1.99,4.76.43,8.19,4.62,9.19,5.38,1.28,10.94.62,15.99-1.47,6.65-2.75,13.3-5.72,19.46-9.4,9.47-5.67,18.58-11.95,27.74-18.13,4.42-2.98,8.61-6.29,12.92-9.44.36-.26.81-.38,1.88-.86-.73,1.18-1.14,1.74-1.45,2.35-.92,1.82.2,4.56,2.09,5.18,2.51.82,9.42-3.93,9.56-6.59.01-.24-.16-.51-.08-.72.69-1.93,1.31-3.89,2.17-5.74.28-.6,1.2-.91,1.83-1.35.31.7.87,1.4.88,2.1.04,3.04-.04,6.08-.16,9.12-.11,2.72-.59,5.45-.47,8.16.14,3.12,3.4,5.46,6.41,4.68,2.76-.72,5.61-1.5,8.09-2.85,3.91-2.13,7.67-4.61,11.29-7.22,7.44-5.39,14.78-10.94,22.1-16.51,2.41-1.83,4.64-3.9,6.92-5.89,2.55-2.23,5.1-4.47,7.61-6.76,2.87-2.61,5.76-5.2,8.51-7.93,4.23-4.19,8.4-8.45,12.52-12.76,4.59-4.8,9.12-9.66,13.6-14.56,2.26-2.47,4.25-5.21,6.58-7.61,3.81-3.92,7.92-7.57,11.69-11.52,3.57-3.74,7.79-6.43,12.4-8.58,1.9-.88,2.79-.17,2.68,1.95-.04.74-.17,1.5-.43,2.19-.85,2.19-1.65,4.42-2.71,6.52-2.6,5.16-5.29,10.26-8.02,15.35-1.69,3.16-3.72,6.15-5.26,9.37-2.45,5.14-4.61,10.42-6.91,15.63-3.38,7.63-7,15.18-8.37,23.53-.53,3.25,1.65,5.56,4.82,4.66,4.11-1.16,7.56-3.33,10.34-6.81,3.17-3.96,6.83-7.53,10.32-11.22,1.13-1.19,2.01-.89,2.44.69.37,1.34.75,2.68,1.13,4.02,1.95,7.01,5.04,8.79,10.44,8.03,3.84-.54,7.6-2.52,11.1-4.4,4.03-2.17,7.71-4.98,11.59-7.44,2.41-1.52,3.47-.99,4.23,1.76.58,2.11.88,4.71,3.51,5.18,3.44.61,6.97,1.05,10.46.99,4.53-.09,8.66.57,12.54,3.13,1.18.78,3.3.98,4.64.5,2.29-.82,4.31-2.4,6.44-3.66l.39-2.99c-1.72-1.23-3.3-2.77-5.19-3.59ZM192.39,40.43c5.78-3.55,11.51-7.2,17.46-10.45,7.25-3.97,14.65-7.67,22.09-11.28,4.27-2.07,8.64-4.02,13.13-5.53,5.85-1.97,11.84-3.59,17.83-5.08,2.91-.73,5.96-.93,8.96-1.18,1.72-.14,3.46.12,5.66.22-3.75,2.03-7.13,4.08-10.7,5.74-7.26,3.38-14.56,6.67-21.95,9.76-9.72,4.07-19.52,7.95-29.32,11.84-8.11,3.22-16.3,6.25-24.4,9.5-3.76,1.51-7.39,3.34-11.08,5.02-.11-.18-.22-.35-.33-.53,4.21-2.68,8.39-5.42,12.65-8.03Zm-114.41,46.45c-2.3.81-4.63,1.5-6.91,2.36-5.5,2.09-10.92,4.38-16.46,6.35-3.86,1.37-7.9,2.25-11.81,3.5-1.98.63-3.83,1.68-5.79,2.4-2,.73-4.07,1.29-6.16,1.93,3.21-5.38,47.55-21.2,58.51-20.62-4.21,1.51-7.79,2.81-11.38,4.08Zm51.31-3.09c-3.36-1.96-6.66-3.88-9.99-5.82,7.93-2.83,16.04-5.73,24.33-8.69-4.88,4.94-9.64,9.76-14.34,14.51Zm44.72,73.97c-9.96,6.64-19.93,13.32-30.31,19.26-6.1,3.49-12.77,6.29-20.12,6.46-2.87.07-4.61-1.97-3.15-4.32,3.22-5.19,6.36-10.53,10.36-15.1,3.8-4.34,8.53-7.92,13.07-11.57,7.98-6.41,16.99-11.03,26.89-13.55,5.28-1.34,10.93-2.03,16.05,1.04,1.85,1.11,3.4,2.73,5.43,4.4-6.47,4.78-12.17,9.34-18.22,13.38Z"/>
    </g>
  </g>
</svg>